<svg xmlns="http://www.w3.org/2000/svg" id="Layer_1" data-name="Layer 1" viewBox="0 0 201.67 214"><defs><style>.cls-1{fill:#fff}.cls-2{fill:#e85984}.cls-3{fill:#e51050}.cls-4{fill:#78082a}</style></defs><g id="e25372ea-27b2-45f8-b937-c38b344ca81c"><path id="ec81e7e6-36d2-491f-af83-4317f13d0d06" d="M32.6,.03L185.16,33.44h16.51V214H28.63c-6,0-10.87-4.87-10.87-10.87h0v-45.5L32.28,.5l.32-.47Z" class="cls-4"/><path id="ef348a5d-d511-43e6-bf3d-d7f168769fee" d="M32.6,0H175.96c6,0,10.87,4.87,10.87,10.87V150.47H32.6V0h0Z" class="cls-3"/><path id="ecbb4b61-ca51-4d97-a26b-3e9b0a388f40" d="M0 170.11L32.6 150.47 32.6 0 0 19.64 0 170.11z" class="cls-2"/></g><g id="b2e6e549-8e62-4cc1-95bd-8b2080b4f333"><path d="M67.37 185.47v-8.76c0-7.22 4.56-12.14 12.87-12.14 7.27 0 11.83 3.43 12.05 10.07h-7.27c-.18-2.75-1.67-4.38-4.69-4.38s-4.97 2.08-4.97 5.46v10.74c0 3.39 1.76 5.46 4.92 5.46s4.65-1.67 4.79-4.69h7.36c-.45 7.09-4.79 10.38-12.37 10.38-7.85 0-12.68-4.92-12.68-12.14zM113.35 189.98h-9.48l-1.76 6.91h-7.85l9.03-31.6h10.52l9.52 31.6h-8.04l-1.94-6.91zm-4.83-19.5l-3.21 13.63h6.5l-3.3-13.63zM152.06 177.89v5.82c0 8.13-4.97 13.18-14.36 13.18h-10.34v-31.6h11.42c8.85 0 13.27 5.06 13.27 12.59zm-7.9-.27c0-4.42-1.81-6.64-5.6-6.64h-3.3v20.22h2.62c4.2 0 6.27-2.26 6.27-7.27v-6.32z" class="cls-1"/></g><g id="a47c2a2c-92e3-4d8a-be4d-df500041a9c8"><path d="M121.69,98.83h-25.02l-4.65,18.23h-20.73l23.82-83.39h27.76l25.13,83.39h-21.2l-5.12-18.23Zm-12.75-51.46l-8.46,35.97h17.15l-8.7-35.97Z" class="cls-1"/><path d="M121.69,98.83h-25.02l-4.65,18.23h-20.73l23.82-83.39h27.76l25.13,83.39h-21.2l-5.12-18.23Zm-12.75-51.46l-8.46,35.97h17.15l-8.7-35.97Z" class="cls-1"/></g></svg>