<?xml version="1.0" encoding="UTF-8"?>
<svg id="Layer_2" data-name="Layer 2" xmlns="http://www.w3.org/2000/svg" viewBox="0 0 419.83 202.69">
  <defs>
    <style>
      .cls-1 {
        fill: #444c45;
      }
    </style>
  </defs>
  <g id="Capa_1" data-name="Capa 1">
    <g>
      <path class="cls-1" d="m111.22,136.17l16.38-.14c2.36-.34,5.86-.54,8.71-.48,8.64.17,17.38,3.34,15.19,12.28-1.57,6.42-6.38,9.87-12.12,11.62,7.61.58,13.44,3.29,11.09,12.88-3.05,12.43-15.73,14.65-27.22,14.42-2.94-.06-6-.27-7.97-.5l-16.38.14c-.76,0-1.55-.55-1.31-1.53.22-.89,1.39-1.55,2.09-1.64,3.14-.43,5.2-.94,5.62-2.64l9.42-38.44c.44-1.79-1.28-2.34-4.31-2.72-.66-.08-1.53-.64-1.29-1.61.26-1.06,1.33-1.63,2.09-1.64Zm10.04,26.43l-4.8,19.58c1.86.31,4.87.77,7.72.83,6.63.11,11.71-2.05,13.8-10.58,2.19-8.94-4.73-9.93-10.64-9.88l-6.08.05Zm13.53-23.23c-2.58-.46-5.59.13-8.01.72l-4.58,18.69c7.52-.06,14.33-.69,16.58-9.87,1.59-6.5-1-8.99-3.99-9.53Z"/>
      <path class="cls-1" d="m159.52,150.92l11.15-.09c3.97-.03,3.56,2,3.1,3.87l-4.72,19.26c-1,4.06-1.14,8.44,3.37,8.24,5.53-.21,9.94-5.84,12.86-14.3l2.81-11.46c.44-1.79-.38-2.59-2.53-2.74-.76,0-1.57-.47-1.33-1.45.24-.98,1.31-1.55,2.07-1.56l9.63-.08c4.48-.04,3.77,2.16,3.35,3.86l-6.21,25.35c-.44,1.79,1.29,2.66,3.8,2.72.68,0,1.48.47,1.25,1.45-.26,1.06-1.22,1.55-1.98,1.56l-12.33.1c-2.45.02-2.47-1.6-2.08-3.23l.64-2.6c-3.15,3.92-7.38,6.71-13.2,6.76-8.36.07-13.1-3.3-11.05-11.67l4.48-18.28c.44-1.79-1.31-2.58-3.8-2.72-.76,0-1.57-.47-1.33-1.45.24-.98,1.22-1.55,2.07-1.56Z"/>
      <path class="cls-1" d="m221.85,150.39c2.45-.02,2.47,1.6,2.05,3.31l-6.37,26c-.44,1.79,1.22,2.58,3.71,2.73.76,0,1.57.47,1.35,1.37-.26,1.06-1.31,1.55-2.07,1.56l-19.59.17c-.76,0-1.48-.47-1.23-1.53.22-.89,1.27-1.39,1.94-1.4,2.57-.18,4.72-1.01,5.15-2.8l5.77-23.57c.42-1.71-1.31-2.58-3.82-2.64-.67,0-1.48-.47-1.23-1.53.24-.98,1.22-1.55,1.98-1.56l12.33-.1Zm6.9-14.74c-.78,3.17-4.32,5.96-7.87,5.99-3.46.03-5.68-2.63-4.88-5.88.84-3.41,4.32-5.96,7.79-5.99,3.55-.03,5.76,2.63,4.96,5.88Z"/>
      <path class="cls-1" d="m237.52,150.42l2.75-11.21c.56-2.28,8.94-3.81,10.16-4.3,1.03-.41,1.54-.09,1.22,1.21l-3.48,14.22c2.87-.02,5-.12,7.98-.23.84,0,2.05-.1,1.53,2.01-.52,2.11-1.74,2.29-2.58,2.29-2.73-.22-5.26-.2-7.88-.18l-4.48,18.28c-1.21,4.96-1.67,8.2,2.09,8.33,2.43.06,4.65-.77,5.79-.94.53-.09,1.73-.18,1.93.39.31.81-.35,1.79-1.38,2.53-1.86,1.4-6.16,3.13-9.2,3.16-7.43.06-12.24-3.71-10.49-10.86l5.1-20.8c-1.44.01-2.81.1-4.45.28-.86.09-1.99-.14-1.47-2.26.52-2.11,1.7-2.12,2.52-2.05,1.58.07,3,.14,4.35.13Z"/>
      <path class="cls-1" d="m260.71,179.26l5.75-23.48c.42-1.71-.73-2.51-3.82-2.64-.67,0-1.46-.56-1.23-1.53.24-.98,1.22-1.55,1.98-1.56l12.33-.1c2.45-.02,2.45,1.68,2.04,3.39l-1.37,5.61c2.88-4.89,7.46-9.79,13.37-9.84,1.18,0,2.3.22,3.41.54,1.89.55,3.33,2.24,1.89,5.34-1.04,2.2-3.36,3.76-6.04,2.97-1.48-.47-2.76-.79-3.94-.78-6.84.06-10.73,11.44-12.18,16l-1.47,6.01c-.46,1.87.36,2.67,3.44,2.81.76,0,1.57.47,1.35,1.37-.26,1.06-1.22,1.55-2.07,1.56l-19.34.16c-.76,0-1.48-.47-1.23-1.53.22-.89,1.27-1.39,1.94-1.4,3.17-.19,4.72-1.01,5.17-2.88Z"/>
      <path class="cls-1" d="m318.31,164.33l1-4.06c1.33-5.44-.24-7.95-3.79-7.92-6.67.06-9.17,8.19-14.37,7.75-3.47-.29-3.45-4.51.34-7.22,3.32-2.54,9.71-4.22,15.57-4.03,7.9.1,14.59,4.42,13.02,11.16l-4.26,17.39c-.98,3.98-.1,4.54.91,4.53.84,0,1.77-.34,1.91.47.23,1.46-4.98,2.8-8.26,2.75-3.78-.05-5.84-2.3-5.7-5.3-2.93,3.35-7.08,5.49-13.16,5.54-6.5.06-10.69-3.15-9.05-9.17,2.06-8.05,11.47-11.37,25.84-11.9Zm-11.57,16.96c5.41-.05,9.31-8.43,10.56-12.82l.16-.65c-9.34.97-12.99,4.16-13.98,8.23-.8,3.25.56,5.27,3.27,5.24Z"/>
      <path class="cls-1" d="m335.55,178.22c.56-2.28,3.4-4.25,7.62-5.98-3.68-2.16-5.47-5.87-4.3-10.67,1.99-8.13,11.36-12.99,20.73-13.07.68,0,1.35-.01,1.92.06,6.62-1.92,12.6-2.94,16.4-2.98,1.44-.01,2.49.14,3.28.38,2.19.71,2.82,2.25,1.88,4.36-.65,1.95-2.07,2.61-3.59,2.63-1.27.01-2.67-.46-3.73-.94-1.89-.88-3.94-2.16-8.14-2.2,4.91,1.99,7.65,5.94,6.29,11.46-2.01,8.21-11.46,13.4-20.75,13.48-2.36.02-4.56-.28-6.43-.92-1.61,1.07-2.78,2.05-2.98,2.86-.78,3.17,4.11,3.86,10.02,3.81,11.99-.1,20.29,2.83,18.32,10.87-1.79,7.31-12.27,11.21-25.11,11.32-12.92.11-21.47-4.2-19.64-11.67.9-3.66,5.13-5.8,9.71-7.3-1.58-1.45-2.07-3.23-1.52-5.5Zm12.32,20.9c7.85-.07,11.97-3.1,12.98-7.25.98-3.98-4-4.99-9.49-4.95-4.05.03-7.35-.26-9.79-.97-1.61,1.39-2.68,3.02-3.18,5.05-1.17,4.79,1.71,8.18,9.48,8.11Zm6.19-28.03c5.32-.04,8.03-4.2,9.38-9.73,1.31-5.36.62-9.41-4.7-9.37-5.41.05-8.17,4.12-9.49,9.49-1.35,5.53-.6,9.66,4.81,9.61Z"/>
      <path class="cls-1" d="m419.17,166.15c-2.81,11.46-12.52,18.43-24.35,18.53-11.91.1-18.24-6.74-15.43-18.2s12.48-18.27,24.39-18.37c11.82-.1,18.19,6.58,15.39,18.03Zm-23.47,14.96c6.08-.05,9.83-6.41,11.9-14.86,2.09-8.53,1.41-14.69-4.67-14.64-6.17.05-9.87,6.25-11.97,14.78-2.07,8.45-1.43,14.77,4.74,14.72Z"/>
    </g>
    <g>
      <path class="cls-1" d="m1.24,150.16c-1.68-5.04-1.66-11.66.05-19.84,2.23-10.68,7-23.02,14.3-37.02,7.3-14,16.42-27.74,27.38-41.2,10.96-13.47,23.18-25.14,36.66-35.02,7.16-4.8,12.98-7.24,17.46-7.31,4.58-.08,7.97,1.5,10.18,4.75,2.2,3.24,3.57,7,4.12,11.27.54,4.27.52,7.85-.09,10.74-.4,1.9-.83,3.12-1.29,3.68-.47.56-1.09.84-1.89.85-1,.02-1.58-.42-1.74-1.31-.16-.89-.18-2.23-.05-4.03.13-1.79.09-4-.1-6.64-.19-2.63-1.07-5.43-2.64-8.38-1.88-3.85-4.46-5.74-7.75-5.69-2.19.04-4.87.98-8.04,2.82-13.81,8.59-26.42,19.78-37.84,33.55-11.42,13.77-20.97,27.99-28.65,42.64-7.68,14.66-12.6,27.13-14.75,37.41-1.31,6.29-1.47,11.31-.47,15.08,1,3.76,3.39,5.61,7.18,5.55,1.2-.02,2.59-.29,4.19-.82,11.06-3.97,24.37-11.26,39.94-21.87,15.57-10.61,28.1-19.83,37.58-27.65,1.25-1.22,2.27-1.83,3.07-1.84.6-.01,1.13.28,1.61.87.47.59.64,1.23.49,1.93-.19.9-.78,1.8-1.76,2.72-2.98,2.84-10.03,8.33-21.17,16.48-11.14,8.15-22.95,15.96-35.43,23.44-12.49,7.48-22.23,11.57-29.23,12.29-5.88.1-9.66-2.37-11.33-7.42Z"/>
      <path class="cls-1" d="m86.25,124.98c-.03-1.29.1-2.64.4-4.04.92-4.39,2.98-9,6.17-13.83,3.19-4.83,6.86-8.94,11-12.35,4.14-3.4,8.05-5.14,11.73-5.2,3.59-.06,6.59,1.98,9,6.11l1.45-1.96c2.25-3.62,4.02-5.44,5.31-5.46.4,0,.82.09,1.28.28.83.28,1.17.83,1,1.62-.23,1.1-1.38,3.28-3.45,6.55-2.07,3.27-4.15,6.56-6.24,9.88-1.68,2.81-2.75,5.32-3.21,7.52-.97,5.09.29,7.6,3.78,7.54,1.29-.02,2.83-.5,4.62-1.42,5.73-3.18,11.64-7.96,17.74-14.33.76-.81,1.58-1.62,2.44-2.43.86-.81,1.74-1.22,2.64-1.24.8-.01,1.42.23,1.86.71.44.49.59,1.09.45,1.78-.13.6-.51,1.25-1.15,1.96-4.31,4.95-9.22,9.56-14.73,13.83-5.51,4.27-10.36,6.44-14.54,6.52-5.48.09-8.51-4.18-9.08-12.82-4.83,4.56-8.27,7.75-10.34,9.58-5.42,4.57-9.83,6.88-13.22,6.94-2.99.05-4.62-1.86-4.91-5.73Zm30.66-21.27c.95-1.21,1.55-2.41,1.8-3.61.29-1.4.13-2.64-.49-3.72-.62-1.08-1.62-1.61-3.02-1.59-1.4.02-3.12.65-5.16,1.88-4.66,3.26-8.66,7.34-12.01,12.22-3.36,4.88-5.35,8.87-6,11.96-.52,2.5-.04,3.73,1.46,3.7,3.59-.06,11.39-7.01,23.42-20.84Z"/>
      <path class="cls-1" d="m160.27,130.64c-1.06-.63-1.68-1.49-1.84-2.58-.17-1.09-.11-2.34.19-3.73.5-2.4,1.32-4.87,2.45-7.43,1.13-2.56,1.88-4.73,2.26-6.53.27-1.3.24-2.32-.1-3.06-.34-.74-1.08-1.12-2.22-1.16-1.14-.03-2.19-.21-3.16-.54-.97-.33-2.01-.49-3.1-.47-.9.02-1.83.23-2.81.65l-1.11.32c-1.3.02-2.11-1.06-2.45-3.24-.34-2.18-.21-4.67.37-7.47.65-3.09,1.85-6.02,3.62-8.79,1.77-2.76,4-4.17,6.69-4.22l2.03.26c2.92.75,3.96,3.12,3.13,7.11-.54,2.6-1.78,5.2-3.72,7.82-.52.6-.83,1.11-.91,1.51-.1.5.13.82.69.96.57.14,1.24.25,2.01.34,3.7.33,5.88,1.42,6.54,3.24.66,1.83.76,3.84.3,6.04-.56,2.7-1.49,5.45-2.77,8.25-.96,2.21-1.58,4.01-1.87,5.4-.21,1-.14,1.62.21,1.86.35.24.71.41,1.09.5,2.99-.05,8.96-4.88,17.92-14.48,3.22-3.54,5.54-6.11,6.98-7.73,1.43-1.62,2.69-2.43,3.79-2.45.7-.01,1.27.23,1.71.72.44.49.58,1.14.42,1.93-.23,1.1-3.68,5.24-10.34,12.41-9.48,10.21-16.96,15.36-22.44,15.46-1.3.02-2.47-.28-3.53-.91Zm-1.66-40.48c.15-.7.21-1.5.2-2.39-2.37,1.83-3.75,3.7-4.15,5.59-.23,1.1-.18,2.29.15,3.58,2.13-2.62,3.4-4.88,3.8-6.78Z"/>
      <path class="cls-1" d="m184.75,127.16c-1.2-2.56-1.42-5.69-.64-9.39,1.27-6.09,4.36-12.28,9.25-18.58,4.89-6.3,9.9-9.84,15.03-10.63,1.41-.12,2.66-.49,3.73-1.11,1.07-.61,2.06-.93,2.95-.95,1.59-.03,3,1.54,4.23,4.7.37,1.09.61,2.28.74,3.57.2,1.89.69,3.57,1.48,5.05.78,1.48,2.57,2.19,5.36,2.15,1.79-.03,4.07-.47,6.83-1.31.76-.31,1.49-.47,2.19-.48,1.29-.02,1.9.86,1.83,2.65-.29,1.4-1.57,2.51-3.83,3.35-2.26.84-4.58,1.27-6.98,1.31-1.7.03-3.19-.19-4.48-.67-.74-.29-1.4-.42-2-.41-.9.02-1.62.4-2.18,1.16-.56.76-1.19,1.89-1.9,3.39-.71,1.5-1.81,3.44-3.3,5.8-1.49,2.36-3.72,4.96-6.69,7.8-3.28,3.34-7.14,5.39-11.56,6.17l-2.12.19c-4.09.07-6.73-1.18-7.93-3.74Zm19.79-8.1c4.34-4.15,7.04-8.72,8.08-13.72.58-2.79.35-5.47-.7-8.04-.7-2.38-1.94-3.55-3.73-3.52-.9.02-1.95.28-3.15.8-1.76.83-3.29,1.95-4.57,3.36-3.1,3.44-5.52,6.91-7.24,10.42-1.73,3.51-2.85,6.52-3.37,9.01-.83,5.39.4,8.05,3.69,7.99,2.99-.05,6.65-2.15,11-6.31Z"/>
      <path class="cls-1" d="m230.89,129.05c-2.01-2.25-2.43-6.17-1.26-11.77,1.75-8.39,5.94-19.12,12.55-32.22,6.61-13.09,14.11-26.08,22.52-38.96,8.4-12.88,16.61-23.76,24.62-32.65C297.33,4.57,303.68.08,308.36,0c1-.02,1.89.22,2.68.7,2,1.36,2.63,3.78,1.9,7.28-1.98,9.48-12.48,25.98-31.49,49.48-12.18,15.03-25.62,30.63-40.31,46.8-3.1,3.44-5.03,6.95-5.78,10.54-.58,2.8-.68,5.63-.29,8.51.28,1.49,1.12,2.22,2.52,2.19,1.89-.03,4.23-.87,7-2.51,2.77-1.64,5.14-3.32,7.09-5.05,6.11-5.48,10.64-10.03,13.58-13.66,1.57-1.82,2.88-3.23,3.94-4.25,1.05-1.01,1.98-1.53,2.78-1.54.5,0,1,.18,1.52.57.75.68,1.05,1.38.91,2.07-.19.9-.98,2.06-2.36,3.47l-2.51,2.73c-5.06,5.66-9.9,10.54-14.53,14.65-4.63,4.11-9.56,7-14.77,8.68-1.38.42-2.62.64-3.71.66-2.49.04-4.37-.72-5.63-2.29Zm39.4-66.62c23.34-28.05,35.77-45.72,37.3-53.01.4-1.89-.12-2.98-1.55-3.26-2.89.05-8.41,5.07-16.55,15.06-8.15,9.99-16.33,21.49-24.57,34.51-8.23,13.02-14.48,24.74-18.74,35.16l24.12-28.46Z"/>
      <path class="cls-1" d="m264.87,126.08c-2.38-.95-3.14-3.48-2.29-7.57.79-3.79,2.79-9.55,5.99-17.26l4.2-10.81c.72-2,1.82-3.02,3.32-3.04h.45c.91.37,1.14,1.66.68,3.86-.67,3.2-2.14,7.47-4.4,12.83-2.26,5.36-3.78,9.89-4.55,13.58-.52,2.5-.09,3.73,1.31,3.71,2.99-.05,10.63-6.7,22.93-19.94,1.55-1.72,2.87-2.59,3.97-2.6.5,0,1.04.26,1.62.79.58.54.8,1.16.65,1.85-.19.9-.92,2.01-2.18,3.32-7.03,7.48-12.68,13.05-16.97,16.7-4.29,3.65-7.93,5.51-10.92,5.56-1.3.02-2.57-.31-3.82-.98Zm13.93-50.22c.23-1.1.63-2.3,1.2-3.6.57-1.3,1.27-2.38,2.09-3.24.82-.86,1.63-1.3,2.43-1.31.6-.01,1.08.18,1.44.57.37.39.5.84.39,1.34-.23,1.1-.65,2.4-1.26,3.9-.61,1.5-1.34,2.83-2.17,3.99-.84,1.16-1.71,1.75-2.6,1.76-1.5.03-2-1.11-1.52-3.4Z"/>
      <path class="cls-1" d="m315.39,121.63c-.06-.69.02-1.54.23-2.54.46-2.19,3.19-9.3,8.18-21.33l.59-2.1c.29-1.4-.11-2.09-1.21-2.07-2.69.05-8.8,4.83-18.34,14.34-7.17,7.68-11.55,12.98-13.15,15.89-.77,1.3-1.41,2.24-1.92,2.79-.51.55-1.12.84-1.82.85l-1.16-.13c-1.19-.48-1.52-1.96-1-4.46.81-3.89,3.82-11.15,9.02-21.79,1.38-2.81,2.56-5.34,3.52-7.6.97-2.25,1.84-3.93,2.62-5.04.78-1.11,1.66-1.67,2.66-1.69.3,0,.66.06,1.07.21.42.14.75.34,1,.58.25.25.31.67.18,1.26-.33,1.6-1.85,5.06-4.55,10.37l-3.66,7.52c3.62-3.05,6.66-5.73,9.13-8.07,3.05-2.74,5.71-5.02,7.99-6.85,3.55-2.75,6.87-4.15,9.96-4.2,3.89-.07,5.68,2.29,5.37,7.07-.96,4.59-2.45,8.99-4.47,13.21-2.02,4.21-3.38,7.97-4.07,11.26-.28,1.8.13,2.68,1.23,2.66,2.59-.04,8.69-4.78,18.31-14.19,2.82-3.03,5.2-5.41,7.15-7.14,1.35-1.22,2.47-1.83,3.36-1.85.7-.01,1.3.3,1.81.94.51.64.72,1.21.61,1.71-.19.9-1,1.96-2.45,3.18l-5.28,5.31c-4.33,4.55-9.04,8.81-14.14,12.78-5.24,3.67-9.2,5.53-11.89,5.58-3.49.06-5.12-2.1-4.9-6.48Z"/>
      <path class="cls-1" d="m341.07,120.59c-.03-1.29.1-2.64.4-4.04.92-4.39,2.98-9,6.17-13.83,3.19-4.83,6.86-8.94,11-12.35,4.14-3.4,8.05-5.14,11.74-5.2,3.59-.06,6.59,1.98,9,6.11l1.45-1.96c2.25-3.62,4.02-5.44,5.31-5.46.4,0,.82.09,1.28.28.83.28,1.17.83,1,1.62-.23,1.1-1.38,3.28-3.45,6.55-2.07,3.27-4.15,6.56-6.24,9.88-1.68,2.81-2.75,5.32-3.21,7.52-.97,5.09.29,7.6,3.78,7.54,1.29-.02,2.83-.5,4.62-1.42,5.73-3.18,11.64-7.96,17.74-14.33.76-.81,1.58-1.62,2.44-2.43.86-.81,1.74-1.22,2.64-1.24.8-.01,1.42.23,1.86.71.44.49.59,1.09.45,1.78-.13.6-.51,1.25-1.15,1.96-4.31,4.95-9.22,9.56-14.73,13.83-5.51,4.27-10.36,6.44-14.54,6.52-5.48.09-8.51-4.18-9.08-12.82-4.83,4.56-8.27,7.75-10.34,9.58-5.42,4.57-9.83,6.88-13.22,6.94-2.99.05-4.62-1.86-4.91-5.73Zm30.66-21.27c.95-1.21,1.55-2.41,1.8-3.61.29-1.4.13-2.64-.49-3.72-.62-1.08-1.62-1.61-3.02-1.59-1.4.02-3.12.65-5.16,1.88-4.65,3.26-8.66,7.34-12.01,12.22-3.36,4.88-5.36,8.87-6,11.96-.52,2.5-.04,3.73,1.46,3.7,3.59-.06,11.39-7.01,23.42-20.84Z"/>
    </g>
  </g>
</svg>