<?xml version="1.0" encoding="UTF-8"?>
<svg id="Layer_2" data-name="Layer 2" xmlns="http://www.w3.org/2000/svg" viewBox="0 0 99.23 99.23">
  <defs>
    <style>
      .cls-1 {
        fill: #fff;
      }

      .cls-2 {
        fill: #e8b5ac;
      }
    </style>
  </defs>
  <g id="Capa_1" data-name="Capa 1">
    <circle class="cls-2" cx="49.61" cy="49.61" r="49.61"/>
    <g>
      <path class="cls-1" d="m62.78,61.06c-.28.29-.57.57-.86.84l.86-.84Z"/>
      <path class="cls-1" d="m66.74,57.87c.27.02,1.18-.74,1.43-.94,2.69-2.16,5.44-4.74,5.44-8.89,0-7.62-7.07-10.39-14.22-10.6-2.36-.07-5.2.07-7.08.35h-13.46c-.62,0-1.39.48-1.39,1.38,0,.83.83,1.31,1.39,1.38,2.57.35,4.09.83,4.09,2.35v14.03c1.48.47,3.11.71,4.87.71,2.72,0,6.2-.75,9.41-2.36-1.48.21-3.1.24-4.77.24v-14.28c1.87-.48,4.23-.97,6.45-.55,2.57.48,5.2,2.63,5.2,8.17-.02,3.96-2.35,6.35-3.82,7.45,0,0,0,0,0,0-3.78,2.62-8.52,4.01-12.47,4.01-1.74,0-3.37-.23-4.87-.67-.35-.1-.7-.22-1.04-.35-6.05-2.28-9.8-8.32-9.8-17.41,0-11.77,5.21-20.11,14.56-20.11,5.29,0,6.74,4.43,9.65,7.8,1.22,1.38,3.06,2.68,5.06,2.68.92,0,1.84-.31,2.76-.99,2.07-1.68,1.84-4.89-.38-7.19-2.3-2.45-7.59-5.96-18.46-5.96-14.71,0-24.52,9.56-24.52,24.62,0,13.55,8.33,22.29,21.14,23.84.34.04.69.08,1.04.11v8.98c0,1.45-1.59,1.87-4.09,2.22-.55.07-1.39.62-1.39,1.38,0,.83.76,1.32,1.39,1.32h13.46c1.66.21,4.23.42,6.66.49,9.51.28,19.5-1.52,19.5-12.12,0-8.17-5.34-10.53-11.73-11.08Zm-7.77,20.01c-2.36-.07-4.93-.48-6.52-.76v-10.04c.35-.09.7-.19,1.04-.3,3.17-.98,6.01-2.63,8.43-4.88l.86-.84c1.38.41,2.63,1.09,3.59,2.16,0,0,0,.01.01.02.5.61.83,1.2,1.01,1.57-.01-.02-.02-.05-.03-.07.04.07.07.15.1.23.01.02.02.05.03.07.01.02.02.05.03.07,0,.01.01.03.02.05.01.03.02.04.02.04.4,1.02.63,2.26.63,3.76,0,7.27-3.75,9.07-9.23,8.93Z"/>
    </g>
  </g>
</svg>