<?xml version="1.0" encoding="UTF-8"?>
<svg id="Layer_2" data-name="Layer 2" xmlns="http://www.w3.org/2000/svg" viewBox="0 0 242.2 246.2">
  <defs>
    <style>
      .cls-1 {
        fill: #d19a93;
      }

      .cls-2 {
        fill: #fce8e9;
      }
    </style>
  </defs>
  <g id="Capa_1" data-name="Capa 1">
    <path class="cls-2" d="m242.2,120.69c0,69.32-56.19,125.51-125.51,125.51S19.83,211.19,2.72,144.02C-14.39,76.84,52.21-5.8,121.26.32c69.05,6.12,120.94,51.05,120.94,120.37Z"/>
    <g>
      <path class="cls-1" d="m155.62,153.11c-.73.76-1.49,1.5-2.26,2.22l2.26-2.22Z"/>
      <path class="cls-1" d="m166,144.75c.71.06,3.08-1.95,3.74-2.48,7.04-5.65,14.26-12.44,14.26-23.31,0-19.97-18.55-27.24-37.29-27.78-6.18-.19-13.64.18-18.55.91h-35.3c-1.63,0-3.64,1.27-3.64,3.63,0,2.18,2.18,3.45,3.64,3.63,6.73.91,10.73,2.18,10.73,6.17v36.78c3.88,1.22,8.14,1.85,12.76,1.85,7.12,0,16.25-1.96,24.67-6.19-3.87.54-8.12.64-12.51.64v-37.44c4.91-1.27,11.1-2.54,16.92-1.45,6.73,1.27,13.64,6.9,13.64,21.42-.06,10.38-6.17,16.64-10,19.54-.01,0-.02.01-.02.02-9.91,6.86-22.35,10.5-32.7,10.5-4.55,0-8.82-.59-12.76-1.75-.93-.27-1.83-.57-2.72-.91-15.86-5.97-25.69-21.8-25.69-45.65,0-30.87,13.66-52.72,38.16-52.72,13.86,0,17.68,11.63,25.31,20.44,3.21,3.61,8.03,7.02,13.26,7.02,2.41,0,4.82-.81,7.23-2.61,5.43-4.41,4.82-12.83-1-18.84-6.03-6.42-19.89-15.64-48.41-15.64-38.57,0-64.28,25.06-64.28,64.55,0,35.53,21.84,58.44,55.42,62.5.9.11,1.8.21,2.72.28v23.53c0,3.81-4.18,4.9-10.73,5.81-1.45.19-3.64,1.63-3.64,3.63,0,2.18,2,3.45,3.64,3.45h35.3c4.37.54,11.1,1.09,17.47,1.27,24.92.72,51.12-3.99,51.12-31.77,0-21.42-14.01-27.6-30.75-29.05Zm-20.37,52.47c-6.19-.18-12.92-1.27-17.1-2v-26.32c.91-.24,1.82-.5,2.72-.78,8.3-2.58,15.76-6.9,22.11-12.8l2.26-2.22c3.62,1.08,6.91,2.85,9.41,5.67.01.02.02.03.03.04,1.3,1.59,2.17,3.15,2.65,4.11-.03-.06-.05-.13-.08-.19.1.2.19.4.27.6.03.07.05.13.08.18.03.06.05.12.08.18.02.04.04.08.05.12.03.08.04.11.04.11,1.06,2.68,1.66,5.93,1.66,9.87,0,19.07-9.82,23.78-24.19,23.42Z"/>
    </g>
  </g>
</svg>