<?xml version="1.0" encoding="utf-8"?>
<!-- Generator: Adobe Illustrator 27.5.0, SVG Export Plug-In . SVG Version: 6.00 Build 0)  -->
<svg version="1.1" id="Layer_1" xmlns="http://www.w3.org/2000/svg" xmlns:xlink="http://www.w3.org/1999/xlink" x="0px" y="0px"
	 viewBox="0 0 566.9 566.9" style="enable-background:new 0 0 566.9 566.9;" xml:space="preserve">
<style type="text/css">
	.st0{fill:#FFFFFF;}
</style>
<g>
	<path d="M481.6,566.9H85.3C38.2,566.9,0,528.7,0,481.6V85.3C0,38.2,38.2,0,85.3,0h396.3c47.1,0,85.3,38.2,85.3,85.3v396.3
		C566.9,528.7,528.7,566.9,481.6,566.9z"/>
	<g>
		<g>
			<path class="st0" d="M43.7,292c55.2-17.7,118.8,0.2,167.3,88.9c4.4,8.5,10,6.4,9.7-2.3c1.1-9-0.4-46.7-23.9-80.1
				c-0.8-1.7,0.1-2.7,1.3-3.9c5.5-4.1,46.4-12.8,92.1-45.5c3.5-2.4,18.8-9.6,16.2-31.3c-7.6-53.4-50.2-89.7-62.1-97
				c-11.9-7.3-10.6,5.5-10.4,7.4c-2.1,41.3-14.5,102-58.7,143.4c-15.8-4.5-21.4-15.6-21.4-15.6s59.6-77.8,44.2-139.9
				c-4.1-17.5-8.8-23.7-28.3-19.7c-19.5,4-65.8,18.6-65.8,18.6s-7.2,2.7-1.5,10c5.7,7.3,33.1,34.9,10.8,112.1
				c-20.3-6.9-65-15.4-69.4-3.2C39.2,246.1,23.8,291.4,43.7,292z"/>
			<path class="st0" d="M234.2,321.9c-0.6,3.2,2.7,21.9,0,37.5c-4.6,11.6-6.1,18.6,2.9,25.6c9,7,76.2,38.7,115.6,80.9
				c15.1,15.3,22.7-3.7,11.6-12.5c-3-3.4-17.4-16.1-17.1-20.6s8.5,4.1,11.6,7.3c-8.2-16.6,9.7-37.8,28.9-13.9
				c7.8,7.6,2.3,25.4-4.4,30.3c7.3-7.3-5.4-25.6-15.6-15.4c-5.3,5.1,9.2,16.5,12.5,19.4c3.2,2.8,14.8-6.8,18.9-13.5
				c3-4.2,7.3-7.7,13.5-34.5c2-7,4.5-9.5,10.8-15.7c6.2-6.2,96.8-82.2,106.9-114.1c5.9-16.6,3-22.5-9.4-10.7
				c-12.5,11.9-81.6,63.6-107.8,71c-26.2,7.3-30.8-5.9-26.9-9.1c2.3-2.3,60.5-65.3-4.2-31.4c-23.7,8.7-46.8-10.6-51.7-27.8
				c-10.3-32.9-9.9-39.4-33.3-19.3c-12.6,10.4-34.9,21.5-43.4,24.6c-25.6,6.1-35.7,34.7-15,37.6c20.7,2.8,31.9-0.4,26.3,5.5
				c-5.6,5.9-14,11.3-4.6,16.4c9.4,5.2,27.5,18,28.5,19.2c1,1.2,9.4,2.3,11.8-3.8c2.4-6.1,0.3-7.8-1.4-8.7c-1.7-0.9,0.2-3.7,4.1-3.2
				c4,0.5,13.4-3.2,15.7-4.9c2.3-1.7,29.1-6.1,35.6,3.2c-7.4,2.3-9.6-2.5-20.1,1.2c-5.8,2.2-19.7,4-26.3,18.9
				c-4.9,11.1-6.8,34.1-26.8,27.6c-20.1-6.5-40.8-12.6-37.6-32.9C246.9,335.7,245.5,322.6,234.2,321.9z"/>
			<path d="M270.4,337.7c9.6,5.4,12.9,8.9,14.1,10.3c1.2,1.3,7.9,1.9,7.2-4.4c-2.8-5.2-13.1-12.3-15.7-12.4
				C273.3,331.1,268.1,331.8,270.4,337.7z"/>
		</g>
	</g>
</g>
</svg>
