<?xml version="1.0" encoding="UTF-8"?>
<svg id="Layer_2" data-name="Layer 2" xmlns="http://www.w3.org/2000/svg" viewBox="0 0 366.15 366.15">
  <defs>
    <style>
      .cls-1 {
        fill: #fff;
      }

      .cls-2 {
        fill: #444c45;
      }
    </style>
  </defs>
  <g id="Capa_1" data-name="Capa 1">
    <circle class="cls-1" cx="183.07" cy="183.07" r="183.07"/>
    <g>
      <g>
        <path class="cls-2" d="m41.77,156.45l-16.32-3.19c-.72-.14-1.14.56-1.52,1.74-.09.27-.4.6-.82.52-.41-.08-.59-.47-.52-.78l1.32-6.78c.06-.31.37-.61.78-.53.41.08.59.47.56.79-.1,1.23.03,2.04.75,2.18l16.32,3.19c.72.14,1.11-.57,1.48-1.75.09-.3.44-.59.81-.52.41.08.59.47.52.78l-1.32,6.78c-.06.31-.37.61-.78.53-.38-.07-.58-.51-.56-.79.06-1.24,0-2.04-.72-2.18Z"/>
        <path class="cls-2" d="m26.59,136.43l1.48-4.09c.2-.56.75-.85,1.35-.97l18.87-4.19-14-4.65c-.7-.22-1.22.38-1.77,1.49-.13.25-.49.53-.89.39-.4-.14-.49-.59-.4-.85l2.09-5.77c.11-.3.46-.54.85-.4.4.14.49.59.43.86-.29,1.2-.28,2.02.41,2.27l17.33,6.26c.49.18.56.5.42.9l-.2.56c-.35.96-1.4,1.4-2.45,1.62l-19.07,4.23,14.97,4.96c.7.22,1.17-.36,1.73-1.5.13-.25.52-.52.89-.39.4.14.49.59.4.85l-2.09,5.78c-.11.3-.46.54-.85.4-.36-.13-.5-.59-.43-.87.29-1.2.32-2.01-.37-2.26l-15.65-5.65c-.69-.25-1.22.38-1.77,1.49-.13.25-.49.53-.89.39-.4-.14-.51-.56-.4-.85Z"/>
        <path class="cls-2" d="m38.97,108.16c-.43-.38-.62-.81-.33-1.3l8.91-14.99c.3-.51.76-.53,1.3-.33l2.92,1.04c.64.22.78.54.56.9-.79,1.33-3.63-.4-5.55,2.83l-1.56,2.62,15.08,8.96c.63.38,1.24-.16,1.99-1.15.19-.25.61-.41.94-.22.36.21.39.64.23.91l-3.53,5.94c-.16.27-.55.45-.91.23-.33-.2-.37-.67-.26-.93.51-1.13.69-1.92.06-2.29l-15.08-8.96-1.56,2.62c-1.92,3.23.96,4.9.17,6.22-.22.36-.56.4-1.06-.06l-2.31-2.07Z"/>
        <path class="cls-2" d="m54.77,81.95l9.59-11.1c.37-.43.89-.44,1.31-.07l2.01,1.74c.24.21.37.59.07.94-.25.29-.7.23-.96.1-1.13-.56-1.97-.77-2.68.05l-4.91,5.68,6.31,5.45,2.96-3.43c.48-.56.39-1.15-.33-2.19-.17-.24-.3-.67-.04-.97.3-.35.73-.25.94-.07l3.74,3.23c.21.18.37.59.07.94-.25.29-.73.25-.96.1-1.02-.69-1.73-.57-2.21-.01l-2.96,3.43,6.44,5.56,4.04-4.67c2.45-2.84.44-4.58,1.43-5.72.3-.35.67-.3,1.04.25l1.41,2.01c.38.47.49.88.12,1.31l-10.02,11.6c-.21.24-.62.34-.94.07-.29-.25-.25-.73-.09-.96.7-1.02,1.02-1.77.46-2.25l-12.59-10.88c-.56-.48-1.27-.08-2.18.76-.21.19-.65.32-.97.05s-.27-.7-.07-.94Z"/>
        <path class="cls-2" d="m77.76,58.2c.7-.7,1.55-1.48,2.56-2.25,3.34-2.57,7.67-4.18,10.82-.29,2.27,2.8,2.06,5.72-.16,8.51.58-.11,1.1-.04,1.73.13l6.05,1.5c.73.18,1.52-.19,2.26-.39.33-.09.72-.17.98.15.26.33.23.67-.15.98-1.34,1.08-2.6,2.47-4.26,2.05l-7.03-1.88c-.87-.24-1.8-.21-2.63.32-.59.44-1.24.87-1.93,1.24l3.86,4.76c.46.57,1.22.28,2.26-.39.27-.17.72-.17.96.12.26.33.15.74-.1.94l-5.37,4.35c-.25.2-.67.23-.94-.1-.24-.3-.12-.76.08-.96.87-.88,1.31-1.56.85-2.13l-10.47-12.93c-.46-.57-1.24-.3-2.28.36-.24.15-.69.2-.96-.12-.26-.33-.15-.74.1-.94l3.76-3.05Zm10.71-.38c-2.31-2.86-4.84-2.3-7.16-.65-.94.67-1.78,1.48-2.41,2.31l6.04,7.46c1.11-.63,2.05-1.26,2.77-1.88,2.93-2.51,2.77-4.77.77-7.25Z"/>
        <path class="cls-2" d="m109.24,59.1l-8.46-14.32c-.37-.63-1.18-.48-2.31.02-.26.11-.72.1-.93-.26-.21-.36-.04-.75.24-.91l5.95-3.52c.27-.16.7-.13.91.23.21.36.04.75-.22.94-.99.75-1.51,1.38-1.13,2.01l8.46,14.32c.37.63,1.16.45,2.29-.05.29-.13.73-.07.93.26.21.36.04.75-.24.91l-5.95,3.52c-.27.16-.7.13-.91-.23-.2-.33,0-.77.22-.94.97-.78,1.53-1.35,1.15-1.98Z"/>
        <path class="cls-2" d="m138.5,36.63c2.49,6.4.01,11.83-5.97,14.16-6.02,2.34-11.55.02-14.05-6.37-2.5-6.43-.07-12.07,5.95-14.42,5.98-2.33,11.56.2,14.07,6.62Zm-6.57,12.63c4.32-1.68,5.33-6.32,3.36-11.38-1.98-5.09-5.95-8.02-10.27-6.34-4.42,1.72-5.32,6.54-3.34,11.64,1.97,5.06,5.83,7.8,10.24,6.08Z"/>
        <path class="cls-2" d="m151.77,22.3c.95-.27,2.08-.54,3.33-.72,4.17-.62,8.74.09,9.59,5.02.61,3.55-.99,6-4.28,7.35.57.19.98.51,1.45.96l4.55,4.26c.55.51,1.42.57,2.16.76.34.08.71.2.78.61.07.41-.13.7-.61.78-1.69.29-3.48.89-4.71-.29l-5.22-5.07c-.64-.64-1.47-1.06-2.45-1-.73.09-1.5.15-2.29.15l1.04,6.04c.12.72.93.83,2.16.76.32-.02.71.2.78.58.07.41-.23.72-.54.77l-6.81,1.18c-.31.05-.7-.13-.77-.54-.07-.38.27-.72.54-.8,1.19-.35,1.9-.72,1.78-1.45l-2.84-16.39c-.12-.72-.93-.87-2.17-.8-.28.01-.7-.16-.78-.58-.07-.41.23-.72.54-.77l4.77-.83Zm9.53,4.89c-.63-3.62-3.1-4.37-5.93-4.06-1.15.13-2.28.43-3.24.85l1.64,9.46c1.28,0,2.4-.1,3.33-.29,3.78-.76,4.75-2.81,4.2-5.95Z"/>
        <path class="cls-2" d="m193.43,38.42l2.05-16.51c.09-.73-.64-1.1-1.84-1.39-.27-.07-.63-.36-.58-.78.05-.42.43-.62.74-.58l4.77.59c.77.03,2.7.19,3.5.29,7.07.87,11.83,4.71,10.86,12.53-.97,7.82-6.49,10.13-13.56,9.26-.8-.1-2.71-.41-3.46-.6l-4.77-.59c-.31-.04-.63-.33-.58-.74.05-.38.47-.61.75-.61,1.24-.02,2.03-.14,2.12-.87Zm16.09-6.26c.79-6.39-2.21-9.84-7.5-10.49-.91-.11-2.69-.23-3.56-.12l-2.23,18c.82.24,2.58.57,3.49.68,5.29.65,9.01-1.67,9.81-8.07Z"/>
        <path class="cls-2" d="m226.67,24.65l13.96,4.51c.53.17.75.65.58,1.18l-.82,2.53c-.1.3-.41.57-.84.43-.37-.12-.48-.56-.46-.85.08-1.26-.05-2.11-1.09-2.45l-7.15-2.31-2.57,7.93,4.31,1.39c.7.23,1.21-.09,1.89-1.16.15-.25.51-.54.87-.42.43.14.52.57.43.84l-1.52,4.7c-.09.27-.41.57-.84.43-.37-.12-.52-.57-.46-.85.24-1.21-.15-1.81-.85-2.04l-4.31-1.39-2.62,8.1,5.88,1.9c3.57,1.15,4.39-1.38,5.83-.91.43.14.54.5.18,1.05l-1.3,2.08c-.28.53-.62.79-1.16.62l-14.59-4.72c-.3-.1-.56-.44-.43-.84.12-.37.57-.51.85-.46,1.21.24,2.02.25,2.25-.45l5.12-15.82c.23-.7-.42-1.2-1.55-1.71-.26-.12-.55-.47-.42-.87.13-.4.54-.52.84-.43Z"/>
        <path class="cls-2" d="m246.54,48.44c.16.08.28.3.24.52-.34,2-.06,5.03,3.57,6.94,2.27,1.19,4.72.82,5.71-1.07,2.57-4.9-8.92-8.68-5.37-15.44,1.72-3.29,6.1-3.48,9.15-1.88,2.45,1.29,4.23,2.89,4.43,3.87.22.95-.88,3.18-1.82,3.63-.16.07-.38.04-.53-.04-.19-.1-.31-.24-.3-.48.18-2-.23-4.31-2.75-5.64-1.55-.81-3.99-.71-5.06,1.34-2.81,5.36,8.91,8.99,5.33,15.81-1.81,3.44-5.74,3.31-10.12,1.02-2.58-1.35-5-3.38-5.2-4.35-.22-.94,1.18-3.77,2.13-4.22.22-.12.44-.08.6,0Z"/>
        <path class="cls-2" d="m266.76,64.46l9.69-13.52c.43-.6-.04-1.27-.95-2.1-.21-.19-.38-.62-.13-.96.24-.34.67-.34.93-.15l5.62,4.03c.26.18.4.59.15.93-.24.34-.67.34-.95.18-1.08-.6-1.87-.82-2.3-.23l-9.69,13.52c-.43.6.06,1.25.97,2.08.24.21.36.65.13.96-.24.34-.67.34-.93.15l-5.62-4.03c-.26-.18-.4-.59-.15-.93.22-.31.7-.32.95-.18,1.1.57,1.85.85,2.28.25Z"/>
        <path class="cls-2" d="m299.34,66.41c3.18,3.13,3.97,5.82,3.95,7.28-.06,1.41-.75,2.56-1.74,2.32-.27-.07-.55-.24-.75-.44-.62-.62-.86-1.68-.86-2.57-.02-2.03.07-3.62-1.78-5.44-3.28-3.22-8-2.03-11.83,1.86-3.81,3.87-4.54,8.7-1.51,11.68,2.05,2.02,5.01,3.26,7.72.52l.84-.85c1.43-1.45-1.22-3.96-2-4.92-.18-.22-.28-.67.02-.97s.72-.23.94,0l6.75,6.65c.2.2.3.64,0,.94s-.74.2-.97.03c-.57-.42-1.5-.88-2.01-.36l-3.61,3.67c-.25.25-.57.37-.79.4-2.18.26-5.14-1.08-8.04-3.94-4.48-4.41-4.6-10.38.22-15.27,4.84-4.92,10.94-5.06,15.47-.6Z"/>
        <path class="cls-2" d="m314.16,83.3l2.44,3.6c.33.49.24,1.11-.02,1.66l-7.73,17.71,12-8.57c.59-.44.41-1.21-.16-2.3-.13-.25-.14-.71.21-.94.35-.23.77-.05.93.18l3.44,5.09c.18.26.17.69-.18.92-.35.24-.77.05-.95-.16-.8-.94-1.47-1.42-2.08-1.01l-15.26,10.31c-.44.29-.74.16-.97-.19l-.33-.49c-.57-.84-.31-1.95.14-2.93l7.82-17.9-12.82,9.17c-.59.44-.4,1.16.19,2.29.13.25.11.73-.21.94-.35.23-.77.05-.92-.18l-3.44-5.09c-.18-.26-.17-.69.18-.92.32-.22.77-.05.95.16.8.94,1.44,1.44,2.05,1.03l13.78-9.31c.61-.41.41-1.21-.16-2.3-.13-.25-.14-.71.21-.94.35-.23.75-.08.92.18Z"/>
        <path class="cls-2" d="m330.85,110.3l5.85,13.45c.22.52.01.99-.5,1.21l-2.44,1.06c-.29.13-.69.07-.88-.35-.15-.35.1-.73.33-.91,1-.78,1.55-1.44,1.12-2.44l-2.99-6.88-7.64,3.32,1.8,4.15c.29.68.86.85,2.11.65.28-.05.74.02.89.38.18.42-.09.76-.34.88l-4.53,1.97c-.26.11-.69.07-.88-.35-.15-.35.09-.77.33-.91,1.07-.62,1.26-1.31.97-1.99l-1.8-4.15-7.8,3.39,2.46,5.66c1.5,3.44,3.94,2.38,4.54,3.76.18.42-.02.74-.67.83l-2.42.4c-.59.14-1.01.06-1.23-.46l-6.11-14.06c-.13-.29-.04-.71.34-.88.35-.15.76.09.91.33.62,1.07,1.15,1.68,1.82,1.39l15.26-6.63c.67-.29.62-1.11.26-2.29-.08-.27,0-.72.38-.89s.75.06.88.35Z"/>
        <path class="cls-2" d="m342.3,141.38c.33.93.66,2.04.91,3.28.86,4.12.43,8.73-4.44,9.87-3.51.82-6.05-.64-7.59-3.84-.15.58-.45,1.01-.87,1.5l-3.98,4.79c-.48.58-.49,1.45-.63,2.2-.06.34-.15.72-.56.82-.41.1-.7-.09-.82-.57-.39-1.67-1.09-3.42,0-4.72l4.75-5.51c.6-.68.97-1.53.85-2.51-.13-.73-.24-1.49-.28-2.28l-5.97,1.4c-.72.17-.78.98-.63,2.2.04.32-.15.72-.53.81-.41.1-.73-.19-.8-.5l-1.58-6.73c-.07-.31.09-.71.5-.8.37-.09.74.22.83.49.42,1.16.83,1.86,1.55,1.69l16.19-3.8c.72-.17.81-.98.67-2.21-.03-.28.12-.71.53-.81.41-.1.73.19.8.5l1.11,4.71Zm-4.32,9.81c3.58-.84,4.18-3.36,3.7-6.17-.2-1.14-.56-2.25-1.03-3.18l-9.34,2.19c.08,1.28.24,2.4.49,3.31.98,3.73,3.09,4.57,6.19,3.85Z"/>
      </g>
      <g>
        <path class="cls-2" d="m323.82,219.65l15.89,4.9c.7.22,1.2-.44,1.69-1.57.12-.26.46-.55.87-.43.4.12.53.53.44.83l-1.43,4.63c-.19.97-.46,2.1-.87,3.29-1.34,3.99-4.04,7.75-8.82,6.28-4.45-1.37-5.57-5.24-3.92-10.46.29-.94.67-1.92,1.14-2.88l-5.86-1.81c-.7-.22-1.16.45-1.66,1.58-.13.29-.5.54-.87.43-.4-.12-.53-.53-.44-.83l2.04-6.61c.09-.3.43-.56.83-.44.37.11.52.56.47.84-.19,1.23-.22,2.02.48,2.24Zm6.64,5.09c-.57,1.15-1,2.19-1.25,3.1-1,3.73.35,5.51,3.4,6.45,3.51,1.08,5.3-.79,6.3-3.45.41-1.09.65-2.22.71-3.27l-9.17-2.83Z"/>
        <path class="cls-2" d="m331.08,254.65c-.36.92-.83,1.98-1.45,3.08-2.03,3.69-5.36,6.9-9.8,4.59-3.2-1.67-4.17-4.43-3.25-7.86-.49.34-.99.47-1.64.57l-6.14,1.04c-.74.13-1.31.78-1.92,1.26-.27.22-.59.45-.96.25-.37-.19-.48-.52-.25-.96.79-1.53,1.4-3.31,3.08-3.58l7.19-1.08c.9-.13,1.73-.52,2.28-1.35.37-.64.79-1.29,1.27-1.91l-5.44-2.83c-.65-.34-1.23.23-1.92,1.26-.18.26-.59.45-.93.27-.37-.19-.43-.62-.28-.9l3.19-6.13c.15-.28.52-.48.9-.28.34.18.41.65.31.92-.44,1.15-.58,1.95.07,2.29l14.76,7.68c.65.34,1.26-.22,1.95-1.24.16-.23.56-.46.93-.27.37.19.43.62.28.9l-2.23,4.3Zm-9.66,4.62c3.26,1.7,5.35.17,6.82-2.27.6-1,1.04-2.07,1.29-3.09l-8.51-4.43c-.77,1.02-1.38,1.97-1.79,2.83-1.69,3.47-.64,5.48,2.19,6.95Z"/>
        <path class="cls-2" d="m297.14,285.88c-5.39-4.25-6.01-10.2-2.03-15.23,4-5.06,9.95-5.87,15.33-1.61,5.42,4.28,6.18,10.37,2.18,15.44-3.98,5.04-10.07,5.68-15.48,1.41Zm-.74-14.21c-2.87,3.63-1.39,8.15,2.87,11.52,4.29,3.39,9.19,3.9,12.06.27,2.94-3.72,1.27-8.34-3.02-11.72-4.26-3.36-8.98-3.78-11.91-.06Z"/>
        <path class="cls-2" d="m279.59,289.91c-.5.44-1.3,1.39-.02,2.83l10.29,11.56c.49.55,1.25.25,2.26-.47.23-.16.68-.23.96.08s.15.75-.06.94l-5.19,4.62c-.21.19-.66.26-.94-.05-.28-.31-.15-.75.03-.97.82-.92,1.21-1.64.73-2.19l-9.99-11.22c-2.28-2.56-.81-5.24,1.39-7.2,2.62-2.33,4.72-2.09,5.82-1.38,1,.7,1.54,1.63.57,2.49-1.34,1.19-3.87-.82-5.87.95Z"/>
        <path class="cls-2" d="m279.14,316.24l-12.33,7.94c-.47.3-.98.17-1.28-.3l-1.44-2.24c-.17-.27-.18-.67.2-.92.32-.21.74-.02.95.18.93.86,1.67,1.3,2.59.71l6.31-4.07-4.51-7.01-3.81,2.45c-.62.4-.7.99-.3,2.19.09.27.09.73-.23.94-.38.25-.77.04-.92-.2l-2.67-4.15c-.15-.23-.18-.67.2-.92.32-.21.77-.04.95.18.78.96,1.5,1.03,2.12.63l3.81-2.45-4.61-7.15-5.19,3.34c-3.16,2.03-1.72,4.27-2.98,5.09-.38.25-.73.1-.92-.53l-.79-2.33c-.23-.56-.22-.98.26-1.29l12.89-8.3c.27-.17.69-.16.92.2.21.32.04.77-.18.95-.96.78-1.47,1.41-1.07,2.03l9.01,13.99c.4.62,1.2.44,2.31-.11.26-.12.71-.13.94.23s.06.75-.2.92Z"/>
        <path class="cls-2" d="m245.5,334.9c-4.12,1.7-6.96,1.17-8.33.6-1.28-.53-2.01-1.82-1.41-2.68.19-.27.43-.44.69-.55.81-.33,1.89-.1,2.73.27,1.86.82,3.33,1.81,5.73.82,4.25-1.75,4.99-6.57,2.9-11.62-2.07-5.01-6.08-6.81-10.26-5.08-2.17.9-4.78,2.85-5.54,5.62-.11.38-.37.95-.83.76-.41-.17-.42-1-.38-1.28.42-3.2,2.44-5.93,5.82-7.33,6.06-2.5,11.74-.34,14.36,6,2.64,6.37.38,12.04-5.49,14.46Z"/>
        <path class="cls-2" d="m226.01,340.4c0,.57-.19,1-.74,1.12l-17.09,3.48c-.58.12-.9-.21-1.12-.74l-1.19-2.87c-.27-.62-.12-.94.29-1.02,1.51-.31,2.14,2.96,5.82,2.21l2.99-.61-3.51-17.19c-.15-.72-.95-.81-2.18-.7-.32.03-.72-.18-.79-.55-.08-.41.21-.72.52-.78l6.77-1.38c.31-.06.7.11.79.52.08.38-.25.73-.51.82-1.18.38-1.88.78-1.74,1.5l3.51,17.19,2.99-.61c3.68-.75,2.98-4,4.49-4.31.41-.08.67.15.67.83l.02,3.1Z"/>
        <path class="cls-2" d="m174.37,346.51c-.59-.06-1.11-.51-1.26-1.09l-5.22-18.39-8.59,16.88c-.27.53-.66.88-1.29.81l-4.92-.54c-.31-.04-.64-.32-.59-.73.05-.42.42-.62.74-.62,1.24,0,2.03-.2,2.11-.93l1.81-16.53c.08-.73-.66-1.06-1.87-1.33-.31-.07-.63-.39-.59-.77.05-.42.42-.62.74-.59l6.87.75c.31.03.64.32.59.73-.04.38-.46.62-.74.62-1.24,0-2.03.17-2.11.9l-1.7,15.52,8.5-16.68c.14-.34.55-.54.94-.5l.77.08c.98.11,1.82.45,2.69,3.5l4.16,14.9,1.26-15.01c.04-.73-.63-1.05-1.87-1.33-.28-.06-.63-.39-.59-.77.05-.42.46-.62.74-.59l6.1.67c.31.03.64.32.59.73-.04.38-.46.62-.74.62-1.24,0-2.03.17-2.11.9l-1.81,16.53c-.08.73.66,1.09,1.86,1.37.28.07.63.35.59.77-.05.42-.42.62-.73.59l-4.33-.47Z"/>
        <path class="cls-2" d="m147.28,321.95c-1.21-.26-1.75-.19-2.25.42l-12.37,15.5c-.26.32-.67.44-1.07.3l-.5-.17c-.66-.23-1.32-.71-1.36-2.98l-.41-18.02c-.03-.79-.41-1.18-1.53-1.71-.25-.12-.53-.51-.4-.88.14-.4.55-.52.85-.42l6.87,2.35c.3.1.55.45.42.85-.12.36-.55.52-.86.45-1.21-.26-2.28-.37-2.25.41l.1,4.81,7.5,2.56,2.85-3.8c.47-.62-.38-1.17-1.53-1.71-.25-.12-.53-.51-.4-.88.14-.4.58-.5.85-.41l5.94,2.03c.3.1.55.45.42.85-.12.36-.58.5-.86.45Zm-8.3,4.87l-6.44-2.2.24,10.48,6.2-8.28Z"/>
        <path class="cls-2" d="m109.96,329.27l-3.76-2.19c-.52-.3-.7-.89-.71-1.51l-.72-19.31-7.09,12.93c-.34.65.16,1.27,1.15,2.01.23.17.44.58.22.94-.21.36-.67.38-.91.24l-5.3-3.09c-.27-.16-.45-.55-.24-.91.21-.36.67-.38.93-.27,1.13.5,1.94.65,2.31,0l9.28-15.91c.26-.45.59-.46.96-.25l.52.3c.88.51,1.12,1.63,1.15,2.7l.73,19.52,7.57-13.83c.34-.65-.14-1.22-1.16-1.98-.22-.17-.42-.61-.22-.94.21-.36.67-.38.91-.24l5.3,3.09c.27.16.45.55.24.91-.19.33-.67.38-.93.27-1.13-.5-1.92-.67-2.29-.04l-8.38,14.37c-.37.64.16,1.27,1.15,2.01.22.17.43.58.22.94-.21.36-.64.4-.91.24Z"/>
        <path class="cls-2" d="m97.35,297.7c-1.02-.7-1.55-.84-2.24-.47l-17.32,9.64c-.36.2-.78.15-1.1-.13l-.4-.35c-.53-.46-.95-1.15-.12-3.27l6.45-16.82c.27-.74.06-1.25-.77-2.16-.19-.21-.29-.68-.04-.97.28-.32.7-.27.94-.06l5.47,4.78c.24.21.34.62.06.94-.25.29-.7.27-.96.09-1.02-.7-1.97-1.21-2.24-.47l-1.73,4.49,5.97,5.22,4.08-2.43c.67-.39.09-1.22-.77-2.16-.19-.21-.29-.68-.04-.97.28-.32.73-.25.94-.06l4.73,4.13c.24.21.34.62.06.94-.25.29-.73.25-.96.09Zm-9.52,1.35l-5.13-4.48-3.75,9.79,8.88-5.31Z"/>
        <path class="cls-2" d="m54.53,283.69c-2.75-3.51-3.19-6.28-3-7.73.24-1.39,1.07-2.44,2.02-2.08.26.11.51.31.69.53.54.69.64,1.78.53,2.66-.24,2.02-.53,3.58,1.08,5.62,2.84,3.62,7.68,3.03,11.97-.35,4.27-3.35,5.61-8.06,2.98-11.4-1.78-2.26-4.56-3.87-7.59-1.49l-.94.74c-1.6,1.25.71,4.08,1.36,5.13.15.24.19.7-.14.96-.33.26-.74.14-.93-.11l-5.85-7.45c-.17-.22-.22-.68.11-.94.33-.26.76-.11.96.09.52.49,1.37,1.06,1.95.61l4.05-3.18c.28-.22.61-.3.83-.3,2.19.02,4.96,1.73,7.47,4.93,3.88,4.94,3.24,10.88-2.15,15.12-5.43,4.26-11.49,3.62-15.41-1.37Z"/>
        <path class="cls-2" d="m42.16,265.2l-6.75-13.02c-.26-.5-.08-.99.42-1.25l2.36-1.22c.28-.15.69-.12.9.29.18.34-.05.74-.27.93-.94.84-1.45,1.54-.95,2.51l3.45,6.67,7.4-3.83-2.08-4.02c-.34-.65-.92-.79-2.16-.5-.28.07-.74.02-.91-.32-.21-.41.04-.77.28-.9l4.39-2.27c.25-.13.69-.12.9.29.18.34-.04.77-.27.93-1.02.69-1.17,1.4-.83,2.05l2.08,4.02,7.56-3.91-2.84-5.48c-1.73-3.33-4.09-2.11-4.78-3.45-.21-.4-.03-.74.61-.87l2.39-.57c.58-.18,1-.12,1.26.37l7.05,13.62c.15.28.09.7-.28.9-.34.18-.77-.04-.93-.27-.69-1.03-1.26-1.6-1.92-1.26l-14.77,7.65c-.65.34-.55,1.15-.11,2.31.1.27.06.72-.32.91s-.75,0-.9-.29Z"/>
        <path class="cls-2" d="m28.63,234.99c-.39-.91-.8-1.99-1.14-3.21-1.14-4.06-1.02-8.68,3.77-10.15,3.45-1.06,6.08.22,7.84,3.32.11-.59.38-1.03.77-1.56l3.65-5.05c.44-.61.39-1.48.48-2.24.04-.34.11-.73.51-.85.4-.12.71.04.85.51.51,1.64,1.32,3.34.31,4.71l-4.37,5.82c-.55.72-.87,1.59-.68,2.56.18.71.34,1.47.44,2.25l5.86-1.8c.7-.22.71-1.03.48-2.24-.06-.31.1-.73.47-.84.4-.12.74.14.83.44l2.03,6.61c.09.3-.04.71-.44.83-.37.11-.75-.17-.87-.43-.5-1.13-.96-1.8-1.66-1.58l-15.9,4.89c-.7.22-.74,1.04-.52,2.25.05.28-.07.72-.47.84-.4.12-.74-.14-.83-.44l-1.42-4.63Zm3.64-10.08c-3.52,1.08-3.94,3.63-3.27,6.4.27,1.13.71,2.2,1.25,3.1l9.17-2.82c-.17-1.27-.4-2.37-.71-3.27-1.24-3.66-3.39-4.35-6.44-3.42Z"/>
      </g>
      <circle class="cls-2" cx="335.61" cy="186.96" r="4.09"/>
      <circle class="cls-2" cx="32.6" cy="191.05" r="4.52"/>
    </g>
  </g>
</svg>