<?xml version="1.0" encoding="utf-8"?>
<!-- Generator: Adobe Illustrator 27.5.0, SVG Export Plug-In . SVG Version: 6.00 Build 0)  -->
<svg version="1.1" id="Layer_1" xmlns="http://www.w3.org/2000/svg" xmlns:xlink="http://www.w3.org/1999/xlink" x="0px" y="0px"
	 viewBox="0 0 182 180.1" style="enable-background:new 0 0 182 180.1;" xml:space="preserve">
<g>
	<path d="M89.9,28.3c12,0,21.8-3,21.9-6.7c0.1-3.7-9.6-6.7-21.6-6.7c-12,0-21.8,3-21.9,6.7C68.3,25.3,77.9,28.3,89.9,28.3
		 M88.2,159.3c-41.9,0-75.9-34-75.9-75.9c0-24.5,11.7-46.2,29.7-60.1c-30.3,34.3,3.6,108.1,23.1,110.1c24.4,1.5,33.6-75.5,62.2-85.4
		c21.5-8.1,37.7,24.1,27.9,60.4C145.3,139.2,119.8,158.7,88.2,159.3 M53.1,20.7c5.8-6.5,15.5-11.5,28.6-12.8
		c2.1-0.2,4.3-0.3,6.4-0.3c21.4,0,40.8,8.9,54.6,23.2c-1.9-0.6-4.6-1.5-9.8-1.5c-42,0-56.3,83-68.9,82.7
		C55.7,112.2,27.2,49.8,53.1,20.7 M88.2,2.1C41.1,2.1,3,40.2,3,87.3c0,47.1,38.1,85.2,85.2,85.2c47,0,85.2-38.1,85.2-85.2
		C173.4,40.2,135.2,2.1,88.2,2.1"/>
</g>
</svg>
